<svg width="16" height="15" viewBox="0 0 16 15" fill="none" xmlns="http://www.w3.org/2000/svg">
<path d="M12.4302 1.66801C10.4096 0.588402 7.61111 0.755381 6.44444 2.62526L9.13867 4.06474M12.4302 1.66801C14.4509 2.74762 15.6938 5.07381 14.5271 6.94369L10.4858 4.78447M12.4302 1.66801L12.8191 1.04472M12.4302 1.66801C11.0139 2.01924 10.1109 2.5065 9.13867 4.06474M12.4302 1.66801C12.8098 2.97865 12.8051 3.94598 11.8329 5.50421M9.13867 4.06474L10.4858 4.78447M10.4858 4.78447L8.15244 8.52423M1 14L1.68444 13.24C1.83478 13.0728 2.02406 12.9394 2.23809 12.8496C2.45211 12.7598 2.68533 12.7161 2.92023 12.7216C3.15514 12.7272 3.38564 12.7819 3.59445 12.8816C3.80326 12.9813 3.98495 13.1235 4.12589 13.2975C4.26486 13.4692 4.4435 13.6099 4.64875 13.7095C4.85401 13.809 5.08071 13.8649 5.31229 13.8731C5.54387 13.8812 5.7745 13.8414 5.98732 13.7565C6.20015 13.6716 6.38981 13.5438 6.54244 13.3825L6.69022 13.2256C6.85346 13.0528 7.05475 12.9143 7.28059 12.8194C7.50642 12.7245 7.75158 12.6754 7.99961 12.6754C8.24764 12.6754 8.4928 12.7245 8.71864 12.8194C8.94448 12.9143 9.14577 13.0528 9.309 13.2256L9.45756 13.3825C10.1093 14.0713 11.2807 14.0302 11.8741 13.2983C12.015 13.1241 12.1968 12.9818 12.4057 12.882C12.6145 12.7822 12.8451 12.7274 13.0801 12.7219C13.3152 12.7164 13.5485 12.7602 13.7626 12.85C13.9767 12.9399 14.166 13.0734 14.3163 13.2407L15 14M3.884 10.4013C5.01962 9.47186 6.48394 8.95975 8 8.96183C9.51606 8.95975 10.9804 9.47186 12.116 10.4013" stroke="#363637" stroke-width="1.2" stroke-linecap="round" stroke-linejoin="round"/>
</svg>
