<svg width="32" height="32" viewBox="0 0 32 32" fill="none" xmlns="http://www.w3.org/2000/svg">
<rect width="32" height="32" rx="2" fill="#043E72"/>
<path d="M17.9992 15.999V23.879C18.0392 24.179 17.9392 24.499 17.7092 24.709C17.6166 24.8017 17.5068 24.8753 17.3858 24.9255C17.2648 24.9756 17.1351 25.0015 17.0042 25.0015C16.8732 25.0015 16.7435 24.9756 16.6225 24.9255C16.5016 24.8753 16.3917 24.8017 16.2992 24.709L14.2892 22.699C14.1801 22.5924 14.0972 22.462 14.0469 22.318C13.9965 22.174 13.9802 22.0204 13.9992 21.869V15.999H13.9692L8.20915 8.61902C8.04676 8.41055 7.97349 8.14628 8.00534 7.88395C8.0372 7.62163 8.17159 7.38257 8.37915 7.21902C8.56915 7.07902 8.77915 6.99902 8.99915 6.99902H22.9992C23.2192 6.99902 23.4292 7.07902 23.6192 7.21902C23.8267 7.38257 23.9611 7.62163 23.993 7.88395C24.0248 8.14628 23.9515 8.41055 23.7892 8.61902L18.0292 15.999H17.9992Z" fill="white"/>
</svg>
