<svg width="28" height="28" viewBox="0 0 28 28" fill="none" xmlns="http://www.w3.org/2000/svg">
<g clip-path="url(#clip0_941_243)">
<path d="M27.9866 14.262C27.9866 13.1149 27.8913 12.2778 27.6851 11.4097H14.2788V16.5873H22.148C21.9894 17.874 21.1327 19.8118 19.2288 21.1139L19.2021 21.2873L23.4409 24.4958L23.7346 24.5245C26.4317 22.0906 27.9866 18.5096 27.9866 14.262Z" fill="#4285F4"/>
<path d="M14.2788 27.9039C18.1341 27.9039 21.3706 26.6637 23.7346 24.5245L19.2288 21.1139C18.023 21.9356 16.4047 22.5091 14.2788 22.5091C10.5029 22.5091 7.29806 20.0754 6.15564 16.7114L5.98818 16.7253L1.58059 20.0583L1.52295 20.2148C3.87101 24.7724 8.69412 27.9039 14.2788 27.9039Z" fill="#34A853"/>
<path d="M6.15573 16.7113C5.8543 15.8432 5.67984 14.913 5.67984 13.9519C5.67984 12.9907 5.8543 12.0606 6.13988 11.1925L6.13189 11.0076L1.66906 7.62109L1.52305 7.68896C0.555297 9.58024 0 11.7041 0 13.9519C0 16.1997 0.555297 18.3234 1.52305 20.2147L6.15573 16.7113Z" fill="#FBBC05"/>
<path d="M14.2788 5.3947C16.96 5.3947 18.7687 6.52635 19.7999 7.47205L23.8298 3.6275C21.3548 1.37969 18.1341 0 14.2788 0C8.69412 0 3.87101 3.1314 1.52295 7.68899L6.13978 11.1925C7.29806 7.82857 10.5029 5.3947 14.2788 5.3947Z" fill="#EB4335"/>
</g>
<defs>
<clipPath id="clip0_941_243">
<rect width="28" height="28" fill="white"/>
</clipPath>
</defs>
</svg>
