<svg width="247" height="76" viewBox="0 0 247 76" fill="none" xmlns="http://www.w3.org/2000/svg">
<path d="M55.5161 6.91846L47.8303 9.81923V63.967L55.5161 66.8677V6.91846Z" fill="url(#paint0_linear_984_632)"/>
<path d="M40.1475 21.5205L32.4617 23.4172V58.8215L40.1475 60.7181V21.5205Z" fill="url(#paint1_linear_984_632)"/>
<path d="M24.7671 33.8208L17.0813 34.9365V55.7625L24.7671 56.8782V33.8208Z" fill="url(#paint2_linear_984_632)"/>
<path d="M11.7017 43.8115L4.01585 44.295V53.3196L11.7017 53.8031V43.8115Z" fill="url(#paint3_linear_984_632)"/>
<path d="M62.4248 69.1723V5.38006L71.6478 0L80.8707 5.38006V33.4333L93.5523 26.516V11.5287L103.544 5.38006V56.1064L93.5523 61.8707V35.739L80.8707 42.6562V69.1723L71.6478 75.3209L62.4248 69.1723Z" fill="url(#paint4_linear_984_632)"/>
<path d="M48.8482 1.34452L43.8824 4.28974L48.916 7.11763L48.8482 1.34452ZM3.76261 39.912C12.146 36.2924 21.3066 29.9543 29.1879 23.4125C37.068 16.8718 43.7109 10.0926 47.0464 5.56489L46.2412 4.97177C42.9726 9.40872 36.3971 16.1291 28.5493 22.6431C20.7026 29.1561 11.6256 35.4279 3.36622 38.9939L3.76261 39.912Z" fill="url(#paint5_linear_984_632)"/>
<path d="M133.564 53.4973C133.998 54.9539 134.433 56.2749 134.867 57.4601C135.31 58.6363 135.74 59.7175 136.156 60.7036C136.473 59.636 136.785 58.3784 137.093 56.9308C137.409 55.4832 137.712 53.9542 138.002 52.3437H138.911C138.748 53.3118 138.581 54.2211 138.409 55.0715C138.246 55.913 138.074 56.7182 137.893 57.4872C137.712 58.2472 137.522 58.9801 137.323 59.6858C137.124 60.3825 136.907 61.0701 136.672 61.7486H135.681C135.464 61.2329 135.247 60.7172 135.03 60.2015C134.822 59.6858 134.614 59.1565 134.406 58.6137C134.197 58.0618 133.989 57.4872 133.781 56.8901C133.573 56.293 133.361 55.6596 133.143 54.9901C132.926 55.6596 132.709 56.293 132.492 56.8901C132.284 57.4872 132.076 58.0618 131.868 58.6137C131.66 59.1565 131.447 59.6858 131.23 60.2015C131.022 60.7172 130.809 61.2329 130.592 61.7486H129.615C129.371 61.0701 129.144 60.3825 128.936 59.6858C128.737 58.9801 128.547 58.2472 128.366 57.4872C128.194 56.7182 128.027 55.913 127.864 55.0715C127.71 54.2211 127.552 53.3118 127.389 52.3437H128.339C128.475 53.1399 128.615 53.9225 128.76 54.6915C128.905 55.4515 129.054 56.1889 129.208 56.9037C129.371 57.6184 129.533 58.297 129.696 58.9394C129.868 59.5727 130.036 60.1608 130.198 60.7036C130.587 59.6994 131.004 58.6137 131.447 57.4465C131.89 56.2703 132.329 54.9539 132.763 53.4973H133.564Z" fill="#043E72"/>
<path d="M139.999 58.2337C139.999 57.6184 140.085 57.0846 140.257 56.6322C140.438 56.1708 140.669 55.7863 140.949 55.4787C141.239 55.1711 141.564 54.9449 141.926 54.8001C142.297 54.6463 142.677 54.5694 143.066 54.5694C143.926 54.5694 144.609 54.8499 145.115 55.4108C145.631 55.9718 145.889 56.8358 145.889 58.003C145.889 58.0753 145.884 58.1477 145.875 58.2201C145.875 58.2925 145.871 58.3603 145.862 58.4237H140.935C140.963 59.2832 141.175 59.9437 141.573 60.4051C141.971 60.8665 142.605 61.0972 143.473 61.0972C143.953 61.0972 144.333 61.052 144.613 60.9615C144.894 60.871 145.097 60.7941 145.224 60.7308L145.387 61.4908C145.26 61.5632 145.02 61.6491 144.668 61.7486C144.324 61.8482 143.917 61.8979 143.446 61.8979C142.831 61.8979 142.306 61.8074 141.872 61.6265C141.438 61.4455 141.08 61.1922 140.8 60.8665C140.519 60.5408 140.316 60.1563 140.189 59.7129C140.062 59.2606 139.999 58.7675 139.999 58.2337ZM144.98 57.6772C144.962 56.9444 144.79 56.3744 144.464 55.9673C144.138 55.5601 143.677 55.3565 143.08 55.3565C142.763 55.3565 142.478 55.4199 142.225 55.5465C141.98 55.6732 141.763 55.8451 141.573 56.0623C141.392 56.2703 141.248 56.5146 141.139 56.7951C141.04 57.0756 140.981 57.3696 140.963 57.6772H144.98Z" fill="#043E72"/>
<path d="M152.381 61.1244C152.888 61.1244 153.304 61.0429 153.63 60.8801C153.965 60.7082 154.132 60.4232 154.132 60.0251C154.132 59.8351 154.1 59.6722 154.037 59.5365C153.983 59.4008 153.888 59.2787 153.752 59.1701C153.616 59.0615 153.435 58.9575 153.209 58.8579C152.992 58.7584 152.721 58.6408 152.395 58.5051C152.133 58.3965 151.884 58.288 151.649 58.1794C151.413 58.0618 151.205 57.9306 151.024 57.7858C150.843 57.632 150.699 57.4511 150.59 57.243C150.481 57.0349 150.427 56.7815 150.427 56.483C150.427 55.913 150.64 55.4515 151.065 55.0987C151.499 54.7458 152.092 54.5694 152.843 54.5694C153.322 54.5694 153.716 54.6101 154.024 54.6915C154.34 54.773 154.562 54.8454 154.689 54.9087L154.485 55.6958C154.376 55.6415 154.191 55.5692 153.929 55.4787C153.675 55.3882 153.3 55.343 152.802 55.343C152.603 55.343 152.413 55.3656 152.232 55.4108C152.06 55.447 151.906 55.5104 151.771 55.6008C151.635 55.6823 151.526 55.7908 151.445 55.9265C151.364 56.0532 151.323 56.2115 151.323 56.4015C151.323 56.5915 151.359 56.7544 151.431 56.8901C151.504 57.0258 151.608 57.148 151.744 57.2565C151.888 57.3561 152.06 57.4511 152.259 57.5415C152.467 57.632 152.703 57.7315 152.965 57.8401C153.236 57.9487 153.494 58.0618 153.739 58.1794C153.992 58.288 154.214 58.4237 154.404 58.5865C154.594 58.7403 154.747 58.9303 154.865 59.1565C154.983 59.3737 155.041 59.6496 155.041 59.9844C155.041 60.6177 154.802 61.0972 154.322 61.4229C153.852 61.7486 153.205 61.9115 152.381 61.9115C151.766 61.9115 151.296 61.8572 150.97 61.7486C150.644 61.6491 150.427 61.5722 150.319 61.5179L150.549 60.7172C150.576 60.7353 150.635 60.767 150.726 60.8122C150.816 60.8484 150.938 60.8936 151.092 60.9479C151.246 60.9932 151.427 61.0339 151.635 61.0701C151.852 61.1063 152.101 61.1244 152.381 61.1244Z" fill="#043E72"/>
<path d="M156.748 61.7486V51.3801L157.63 51.2173V54.9358C157.919 54.8273 158.213 54.7458 158.512 54.6915C158.811 54.6282 159.109 54.5965 159.408 54.5965C159.951 54.5965 160.403 54.6735 160.765 54.8273C161.127 54.9811 161.416 55.2027 161.633 55.4923C161.851 55.7727 162 56.112 162.081 56.5101C162.172 56.9082 162.217 57.347 162.217 57.8265V61.7486H161.335V58.1115C161.335 57.6139 161.299 57.1932 161.226 56.8494C161.163 56.5056 161.05 56.2251 160.887 56.008C160.733 55.7908 160.525 55.637 160.263 55.5465C160 55.447 159.67 55.3973 159.272 55.3973C159.118 55.3973 158.951 55.4108 158.77 55.438C158.598 55.4651 158.435 55.4968 158.281 55.533C158.128 55.5601 157.987 55.5918 157.861 55.628C157.743 55.6642 157.666 55.6913 157.63 55.7094V61.7486H156.748Z" fill="#043E72"/>
<path d="M166.687 61.1108C167.03 61.1108 167.329 61.1017 167.582 61.0836C167.845 61.0565 168.066 61.0248 168.247 60.9886V58.5187C168.148 58.4734 167.989 58.4282 167.772 58.3829C167.555 58.3287 167.257 58.3015 166.877 58.3015C166.659 58.3015 166.433 58.3196 166.198 58.3558C165.963 58.3829 165.746 58.4508 165.547 58.5594C165.347 58.6589 165.185 58.7991 165.058 58.9801C164.931 59.161 164.868 59.4008 164.868 59.6994C164.868 59.9617 164.909 60.1834 164.99 60.3644C165.081 60.5453 165.203 60.6901 165.357 60.7986C165.519 60.9072 165.709 60.9886 165.927 61.0429C166.153 61.0882 166.406 61.1108 166.687 61.1108ZM166.605 54.5694C167.067 54.5694 167.456 54.6373 167.772 54.773C168.098 54.8996 168.36 55.0806 168.559 55.3158C168.758 55.542 168.903 55.8134 168.994 56.1301C169.084 56.4468 169.129 56.7906 169.129 57.1615V61.5858C169.039 61.6129 168.908 61.6446 168.736 61.6808C168.564 61.7079 168.365 61.7396 168.139 61.7758C167.912 61.812 167.659 61.8391 167.379 61.8572C167.107 61.8844 166.827 61.8979 166.537 61.8979C166.166 61.8979 165.822 61.8572 165.506 61.7758C165.198 61.6944 164.927 61.5677 164.692 61.3958C164.465 61.2148 164.284 60.9886 164.149 60.7172C164.022 60.4367 163.959 60.0975 163.959 59.6994C163.959 59.3194 164.031 58.9937 164.176 58.7222C164.321 58.4508 164.524 58.2291 164.787 58.0572C165.049 57.8763 165.361 57.7451 165.723 57.6637C166.085 57.5822 166.478 57.5415 166.904 57.5415C167.03 57.5415 167.162 57.5506 167.297 57.5687C167.442 57.5777 167.578 57.5958 167.704 57.623C167.84 57.6411 167.953 57.6637 168.044 57.6908C168.143 57.7089 168.211 57.727 168.247 57.7451V57.3108C168.247 57.0665 168.229 56.8313 168.193 56.6051C168.157 56.3699 168.075 56.1618 167.949 55.9808C167.831 55.7908 167.659 55.6415 167.433 55.533C167.216 55.4154 166.926 55.3565 166.564 55.3565C166.049 55.3565 165.664 55.3927 165.411 55.4651C165.157 55.5375 164.972 55.5963 164.854 55.6415L164.732 54.868C164.886 54.7956 165.121 54.7277 165.438 54.6644C165.764 54.6011 166.153 54.5694 166.605 54.5694Z" fill="#043E72"/>
<path d="M173.157 61.8708C172.859 61.8617 172.596 61.821 172.37 61.7486C172.153 61.6853 171.967 61.5858 171.814 61.4501C171.669 61.3053 171.556 61.1244 171.474 60.9072C171.402 60.681 171.366 60.4006 171.366 60.0658V51.3801L172.248 51.2173V60.0387C172.248 60.2558 172.266 60.4322 172.302 60.5679C172.347 60.6946 172.411 60.7986 172.492 60.8801C172.574 60.9525 172.678 61.0067 172.804 61.0429C172.94 61.0791 173.098 61.1108 173.279 61.1379L173.157 61.8708Z" fill="#043E72"/>
<path d="M176.616 61.8708C176.318 61.8617 176.055 61.821 175.829 61.7486C175.612 61.6853 175.427 61.5858 175.273 61.4501C175.128 61.3053 175.015 61.1244 174.933 60.9072C174.861 60.681 174.825 60.4006 174.825 60.0658V51.3801L175.707 51.2173V60.0387C175.707 60.2558 175.725 60.4322 175.761 60.5679C175.807 60.6946 175.87 60.7986 175.951 60.8801C176.033 60.9525 176.137 61.0067 176.263 61.0429C176.399 61.0791 176.557 61.1108 176.738 61.1379L176.616 61.8708Z" fill="#043E72"/>
<path d="M187.371 58.2472C187.371 58.7991 187.289 59.3013 187.126 59.7537C186.972 60.206 186.751 60.5906 186.461 60.9072C186.181 61.2239 185.846 61.4727 185.457 61.6536C185.068 61.8255 184.638 61.9115 184.168 61.9115C183.697 61.9115 183.267 61.8255 182.878 61.6536C182.489 61.4727 182.15 61.2239 181.861 60.9072C181.58 60.5906 181.358 60.206 181.196 59.7537C181.042 59.3013 180.965 58.7991 180.965 58.2472C180.965 57.6953 181.042 57.1932 181.196 56.7408C181.358 56.2884 181.58 55.9039 181.861 55.5873C182.15 55.2615 182.489 55.0127 182.878 54.8408C183.267 54.6599 183.697 54.5694 184.168 54.5694C184.638 54.5694 185.068 54.6599 185.457 54.8408C185.846 55.0127 186.181 55.2615 186.461 55.5873C186.751 55.9039 186.972 56.2884 187.126 56.7408C187.289 57.1932 187.371 57.6953 187.371 58.2472ZM186.434 58.2472C186.434 57.3696 186.231 56.673 185.823 56.1573C185.416 55.6325 184.864 55.3701 184.168 55.3701C183.471 55.3701 182.919 55.6325 182.512 56.1573C182.105 56.673 181.901 57.3696 181.901 58.2472C181.901 59.1248 182.105 59.8215 182.512 60.3372C182.919 60.8529 183.471 61.1108 184.168 61.1108C184.864 61.1108 185.416 60.8529 185.823 60.3372C186.231 59.8215 186.434 59.1248 186.434 58.2472Z" fill="#043E72"/>
<path d="M191.402 60.7986C191.592 60.4096 191.786 59.9663 191.985 59.4687C192.184 58.962 192.374 58.4418 192.555 57.908C192.745 57.3651 192.917 56.8222 193.071 56.2794C193.234 55.7275 193.369 55.2118 193.478 54.7323H194.36C194.197 55.3746 194.016 56.008 193.817 56.6322C193.618 57.2565 193.406 57.8672 193.179 58.4644C192.962 59.0615 192.732 59.636 192.487 60.1879C192.252 60.7398 192.021 61.2601 191.795 61.7486H190.954C190.719 61.2601 190.483 60.7398 190.248 60.1879C190.013 59.636 189.782 59.0615 189.556 58.4644C189.339 57.8672 189.131 57.2565 188.932 56.6322C188.733 56.008 188.552 55.3746 188.389 54.7323H189.325C189.434 55.2118 189.565 55.7275 189.719 56.2794C189.882 56.8222 190.054 57.3651 190.234 57.908C190.424 58.4418 190.619 58.962 190.818 59.4687C191.017 59.9663 191.212 60.4096 191.402 60.7986Z" fill="#043E72"/>
<path d="M195.384 58.2337C195.384 57.6184 195.47 57.0846 195.642 56.6322C195.823 56.1708 196.054 55.7863 196.334 55.4787C196.624 55.1711 196.95 54.9449 197.312 54.8001C197.682 54.6463 198.062 54.5694 198.451 54.5694C199.311 54.5694 199.994 54.8499 200.501 55.4108C201.016 55.9718 201.274 56.8358 201.274 58.003C201.274 58.0753 201.27 58.1477 201.261 58.2201C201.261 58.2925 201.256 58.3603 201.247 58.4237H196.321C196.348 59.2832 196.561 59.9437 196.959 60.4051C197.357 60.8665 197.99 61.0972 198.859 61.0972C199.338 61.0972 199.718 61.052 199.999 60.9615C200.279 60.871 200.483 60.7941 200.609 60.7308L200.772 61.4908C200.646 61.5632 200.406 61.6491 200.053 61.7486C199.709 61.8482 199.302 61.8979 198.831 61.8979C198.216 61.8979 197.692 61.8074 197.257 61.6265C196.823 61.4455 196.466 61.1922 196.185 60.8665C195.905 60.5408 195.701 60.1563 195.574 59.7129C195.448 59.2606 195.384 58.7675 195.384 58.2337ZM200.365 57.6772C200.347 56.9444 200.175 56.3744 199.849 55.9673C199.524 55.5601 199.062 55.3565 198.465 55.3565C198.148 55.3565 197.863 55.4199 197.61 55.5465C197.366 55.6732 197.149 55.8451 196.959 56.0623C196.778 56.2703 196.633 56.5146 196.524 56.7951C196.425 57.0756 196.366 57.3696 196.348 57.6772H200.365Z" fill="#043E72"/>
<path d="M205.629 54.5965C205.918 54.5965 206.19 54.6192 206.443 54.6644C206.705 54.7096 206.886 54.7549 206.986 54.8001L206.809 55.5601C206.737 55.5239 206.588 55.4877 206.362 55.4515C206.144 55.4063 205.855 55.3837 205.493 55.3837C205.113 55.3837 204.805 55.4108 204.57 55.4651C204.344 55.5194 204.195 55.5646 204.122 55.6008V61.7486H203.24V55.058C203.466 54.9584 203.778 54.8589 204.177 54.7594C204.575 54.6508 205.059 54.5965 205.629 54.5965Z" fill="#043E72"/>
<path d="M211.22 61.8979C210.678 61.8979 210.198 61.812 209.782 61.6401C209.366 61.4682 209.017 61.2239 208.737 60.9072C208.465 60.5815 208.257 60.197 208.113 59.7537C207.968 59.3013 207.895 58.8037 207.895 58.2608C207.895 57.7089 207.968 57.2068 208.113 56.7544C208.266 56.302 208.484 55.913 208.764 55.5873C209.044 55.2615 209.384 55.0127 209.782 54.8408C210.18 54.6599 210.628 54.5694 211.125 54.5694C211.505 54.5694 211.858 54.6011 212.184 54.6644C212.519 54.7277 212.777 54.8092 212.958 54.9087L212.727 55.6687C212.546 55.5782 212.342 55.5058 212.116 55.4515C211.89 55.3973 211.587 55.3701 211.207 55.3701C210.429 55.3701 209.836 55.6234 209.429 56.1301C209.031 56.6277 208.832 57.338 208.832 58.2608C208.832 58.677 208.877 59.0615 208.968 59.4144C209.058 59.7582 209.203 60.0567 209.402 60.3101C209.61 60.5544 209.872 60.7489 210.189 60.8936C210.515 61.0294 210.908 61.0972 211.37 61.0972C211.75 61.0972 212.066 61.0565 212.32 60.9751C212.582 60.8846 212.772 60.8077 212.89 60.7444L213.08 61.5044C212.917 61.5948 212.659 61.6808 212.306 61.7622C211.962 61.8527 211.6 61.8979 211.22 61.8979Z" fill="#043E72"/>
<path d="M220.543 58.2472C220.543 58.7991 220.462 59.3013 220.299 59.7537C220.145 60.206 219.924 60.5906 219.634 60.9072C219.354 61.2239 219.019 61.4727 218.63 61.6536C218.241 61.8255 217.811 61.9115 217.341 61.9115C216.87 61.9115 216.44 61.8255 216.051 61.6536C215.662 61.4727 215.323 61.2239 215.033 60.9072C214.753 60.5906 214.531 60.206 214.368 59.7537C214.215 59.3013 214.138 58.7991 214.138 58.2472C214.138 57.6953 214.215 57.1932 214.368 56.7408C214.531 56.2884 214.753 55.9039 215.033 55.5873C215.323 55.2615 215.662 55.0127 216.051 54.8408C216.44 54.6599 216.87 54.5694 217.341 54.5694C217.811 54.5694 218.241 54.6599 218.63 54.8408C219.019 55.0127 219.354 55.2615 219.634 55.5873C219.924 55.9039 220.145 56.2884 220.299 56.7408C220.462 57.1932 220.543 57.6953 220.543 58.2472ZM219.607 58.2472C219.607 57.3696 219.403 56.673 218.996 56.1573C218.589 55.6325 218.037 55.3701 217.341 55.3701C216.644 55.3701 216.092 55.6325 215.685 56.1573C215.278 56.673 215.074 57.3696 215.074 58.2472C215.074 59.1248 215.278 59.8215 215.685 60.3372C216.092 60.8529 216.644 61.1108 217.341 61.1108C218.037 61.1108 218.589 60.8529 218.996 60.3372C219.403 59.8215 219.607 59.1248 219.607 58.2472Z" fill="#043E72"/>
<path d="M222.457 54.9765C222.72 54.9042 223.059 54.8227 223.475 54.7323C223.9 54.6418 224.448 54.5965 225.117 54.5965C226.004 54.5965 226.646 54.8544 227.044 55.3701C227.09 55.3339 227.176 55.2751 227.302 55.1937C227.438 55.1032 227.605 55.0127 227.804 54.9223C228.004 54.8318 228.234 54.7549 228.497 54.6915C228.768 54.6282 229.067 54.5965 229.392 54.5965C229.926 54.5965 230.356 54.678 230.682 54.8408C231.016 54.9946 231.274 55.2163 231.455 55.5058C231.636 55.7863 231.758 56.1256 231.822 56.5237C231.885 56.9218 231.917 57.3561 231.917 57.8265V61.7486H231.034V58.1115C231.034 57.6501 231.012 57.252 230.967 56.9172C230.93 56.5734 230.849 56.293 230.722 56.0758C230.605 55.8496 230.433 55.6823 230.207 55.5737C229.98 55.4561 229.686 55.3973 229.324 55.3973C229.053 55.3973 228.804 55.4244 228.578 55.4787C228.361 55.5239 228.171 55.5827 228.008 55.6551C227.845 55.7275 227.709 55.7999 227.601 55.8723C227.501 55.9446 227.429 55.9989 227.384 56.0351C227.465 56.2703 227.524 56.5372 227.56 56.8358C227.605 57.1253 227.628 57.433 227.628 57.7587V61.7486H226.746V58.1115C226.746 57.6501 226.723 57.252 226.678 56.9172C226.642 56.5734 226.56 56.293 226.434 56.0758C226.307 55.8496 226.126 55.6823 225.891 55.5737C225.665 55.4561 225.362 55.3973 224.982 55.3973C224.556 55.3973 224.195 55.4199 223.896 55.4651C223.606 55.5104 223.421 55.5511 223.34 55.5873V61.7486H222.457V54.9765Z" fill="#043E72"/>
<path d="M233.753 58.2337C233.753 57.6184 233.838 57.0846 234.01 56.6322C234.191 56.1708 234.422 55.7863 234.703 55.4787C234.992 55.1711 235.318 54.9449 235.68 54.8001C236.051 54.6463 236.431 54.5694 236.82 54.5694C237.679 54.5694 238.362 54.8499 238.869 55.4108C239.385 55.9718 239.643 56.8358 239.643 58.003C239.643 58.0753 239.638 58.1477 239.629 58.2201C239.629 58.2925 239.624 58.3603 239.615 58.4237H234.689C234.716 59.2832 234.929 59.9437 235.327 60.4051C235.725 60.8665 236.358 61.0972 237.227 61.0972C237.706 61.0972 238.086 61.052 238.367 60.9615C238.647 60.871 238.851 60.7941 238.978 60.7308L239.14 61.4908C239.014 61.5632 238.774 61.6491 238.421 61.7486C238.077 61.8482 237.67 61.8979 237.2 61.8979C236.584 61.8979 236.06 61.8074 235.625 61.6265C235.191 61.4455 234.834 61.1922 234.553 60.8665C234.273 60.5408 234.069 60.1563 233.943 59.7129C233.816 59.2606 233.753 58.7675 233.753 58.2337ZM238.733 57.6772C238.715 56.9444 238.543 56.3744 238.218 55.9673C237.892 55.5601 237.43 55.3565 236.833 55.3565C236.517 55.3565 236.232 55.4199 235.978 55.5465C235.734 55.6732 235.517 55.8451 235.327 56.0623C235.146 56.2703 235.001 56.5146 234.893 56.7951C234.793 57.0756 234.734 57.3696 234.716 57.6772H238.733Z" fill="#043E72"/>
<line x1="120.104" y1="48.3535" x2="246.996" y2="47.6713" stroke="#46B3A5"/>
<path d="M133.323 28.0323V30.6332H120.269V28.0323H133.323ZM120.766 17.6616V41.7825H117.568V17.6616H120.766ZM136.106 17.6616V41.7825H132.926V17.6616H136.106Z" fill="#043E72"/>
<path d="M152.292 37.6409V23.8575H155.373V41.7825H152.441L152.292 37.6409ZM152.872 33.8637L154.147 33.8306C154.147 35.0234 154.02 36.1278 153.766 37.1439C153.523 38.1489 153.126 39.0214 152.574 39.7614C152.021 40.5014 151.298 41.0812 150.403 41.5009C149.509 41.9096 148.421 42.1139 147.14 42.1139C146.267 42.1139 145.466 41.9869 144.738 41.7328C144.02 41.4788 143.401 41.0867 142.882 40.5566C142.363 40.0265 141.96 39.3362 141.673 38.4858C141.397 37.6354 141.259 36.6138 141.259 35.421V23.8575H144.323V35.4541C144.323 36.2604 144.412 36.9285 144.588 37.4587C144.776 37.9778 145.025 38.3919 145.334 38.7012C145.654 38.9994 146.008 39.2092 146.394 39.3307C146.792 39.4522 147.2 39.5129 147.62 39.5129C148.923 39.5129 149.956 39.2644 150.718 38.7674C151.48 38.2594 152.027 37.5802 152.358 36.7297C152.701 35.8683 152.872 34.9129 152.872 33.8637Z" fill="#043E72"/>
<path d="M179.475 28.0323V30.6332H166.421V28.0323H179.475ZM166.918 17.6616V41.7825H163.72V17.6616H166.918ZM182.258 17.6616V41.7825H179.077V17.6616H182.258Z" fill="#043E72"/>
<path d="M186.665 33.0188V32.6378C186.665 31.3456 186.853 30.1473 187.228 29.0429C187.604 27.9274 188.145 26.961 188.852 26.1437C189.559 25.3154 190.414 24.6748 191.42 24.222C192.425 23.7581 193.551 23.5262 194.799 23.5262C196.058 23.5262 197.19 23.7581 198.195 24.222C199.211 24.6748 200.073 25.3154 200.78 26.1437C201.498 26.961 202.044 27.9274 202.42 29.0429C202.795 30.1473 202.983 31.3456 202.983 32.6378V33.0188C202.983 34.311 202.795 35.5093 202.42 36.6138C202.044 37.7182 201.498 38.6846 200.78 39.5129C200.073 40.3302 199.217 40.9708 198.212 41.4346C197.218 41.8875 196.091 42.1139 194.832 42.1139C193.573 42.1139 192.441 41.8875 191.436 41.4346C190.431 40.9708 189.57 40.3302 188.852 39.5129C188.145 38.6846 187.604 37.7182 187.228 36.6138C186.853 35.5093 186.665 34.311 186.665 33.0188ZM189.73 32.6378V33.0188C189.73 33.9134 189.835 34.7583 190.044 35.5535C190.254 36.3377 190.569 37.0335 190.989 37.6409C191.42 38.2483 191.955 38.7288 192.596 39.0822C193.236 39.4246 193.982 39.5958 194.832 39.5958C195.672 39.5958 196.406 39.4246 197.036 39.0822C197.676 38.7288 198.206 38.2483 198.626 37.6409C199.046 37.0335 199.36 36.3377 199.57 35.5535C199.791 34.7583 199.902 33.9134 199.902 33.0188V32.6378C199.902 31.7542 199.791 30.9204 199.57 30.1362C199.36 29.3411 199.04 28.6397 198.609 28.0323C198.19 27.4138 197.66 26.9279 197.019 26.5744C196.389 26.221 195.65 26.0443 194.799 26.0443C193.96 26.0443 193.22 26.221 192.579 26.5744C191.95 26.9279 191.42 27.4138 190.989 28.0323C190.569 28.6397 190.254 29.3411 190.044 30.1362C189.835 30.9204 189.73 31.7542 189.73 32.6378Z" fill="#043E72"/>
<path d="M213.742 17.6616V41.7825H210.544V17.6616H213.742ZM228.304 17.6616L218.281 28.9103L212.648 34.7583L212.118 31.3456L216.359 26.6738L224.46 17.6616H228.304ZM225.222 41.7825L216.293 30.0203L218.198 27.4856L229.033 41.7825H225.222Z" fill="#043E72"/>
<path d="M241.955 38.7177V29.4901C241.955 28.7833 241.811 28.1703 241.524 27.6513C241.248 27.1211 240.828 26.7125 240.265 26.4253C239.702 26.1382 239.006 25.9946 238.177 25.9946C237.404 25.9946 236.725 26.1271 236.14 26.3922C235.565 26.6573 235.113 27.0052 234.781 27.4359C234.461 27.8666 234.301 28.3305 234.301 28.8275H231.236C231.236 28.1869 231.402 27.5519 231.733 26.9223C232.064 26.2928 232.539 25.724 233.158 25.216C233.787 24.6969 234.538 24.2882 235.411 23.99C236.294 23.6808 237.277 23.5262 238.36 23.5262C239.663 23.5262 240.812 23.7471 241.806 24.1888C242.811 24.6306 243.595 25.2988 244.158 26.1934C244.732 27.077 245.019 28.1869 245.019 29.5233V37.8728C245.019 38.4692 245.069 39.1043 245.169 39.778C245.279 40.4517 245.439 41.0315 245.649 41.5175V41.7825H242.452C242.297 41.4291 242.176 40.9597 242.087 40.3744C241.999 39.778 241.955 39.2258 241.955 38.7177ZM242.485 30.9149L242.518 33.0685H239.42C238.547 33.0685 237.769 33.1403 237.084 33.2839C236.399 33.4164 235.825 33.6207 235.361 33.8969C234.897 34.173 234.544 34.5209 234.301 34.9405C234.058 35.3492 233.936 35.8296 233.936 36.3818C233.936 36.9451 234.063 37.4587 234.317 37.9225C234.571 38.3864 234.953 38.7564 235.461 39.0325C235.98 39.2976 236.615 39.4301 237.366 39.4301C238.304 39.4301 239.133 39.2313 239.851 38.8337C240.569 38.4361 241.137 37.9501 241.557 37.3758C241.988 36.8015 242.22 36.2438 242.253 35.7026L243.562 37.177C243.484 37.6409 243.274 38.1545 242.932 38.7177C242.59 39.281 242.131 39.8222 241.557 40.3413C240.994 40.8493 240.32 41.2745 239.536 41.6169C238.763 41.9482 237.89 42.1139 236.918 42.1139C235.704 42.1139 234.638 41.8764 233.721 41.4015C232.815 40.9266 232.109 40.2916 231.601 39.4964C231.104 38.6901 230.855 37.79 230.855 36.796C230.855 35.8351 231.043 34.9902 231.418 34.2613C231.794 33.5213 232.335 32.9084 233.042 32.4224C233.749 31.9254 234.599 31.5499 235.593 31.2959C236.587 31.0419 237.697 30.9149 238.923 30.9149H242.485Z" fill="#043E72"/>
<defs>
<linearGradient id="paint0_linear_984_632" x1="52.0152" y1="-16.1386" x2="51.6732" y2="66.8677" gradientUnits="userSpaceOnUse">
<stop stop-color="#064076"/>
<stop offset="1" stop-color="#46B3A5"/>
</linearGradient>
<linearGradient id="paint1_linear_984_632" x1="35.8777" y1="-0.448089" x2="36.3046" y2="60.7181" gradientUnits="userSpaceOnUse">
<stop stop-color="#064076"/>
<stop offset="1" stop-color="#46B3A5"/>
</linearGradient>
<linearGradient id="paint2_linear_984_632" x1="20.6252" y1="13.4538" x2="20.9242" y2="56.8782" gradientUnits="userSpaceOnUse">
<stop stop-color="#064076"/>
<stop offset="1" stop-color="#46B3A5"/>
</linearGradient>
<linearGradient id="paint3_linear_984_632" x1="8.07117" y1="36.766" x2="7.85876" y2="53.8031" gradientUnits="userSpaceOnUse">
<stop stop-color="#064076"/>
<stop offset="1" stop-color="#46B3A5"/>
</linearGradient>
<linearGradient id="paint4_linear_984_632" x1="83.3899" y1="13.8985" x2="83.3899" y2="103.118" gradientUnits="userSpaceOnUse">
<stop stop-color="#043E72"/>
<stop offset="1" stop-color="#46B3A5"/>
</linearGradient>
<linearGradient id="paint5_linear_984_632" x1="42.5922" y1="1.79323" x2="-6.27674" y2="35.867" gradientUnits="userSpaceOnUse">
<stop stop-color="#064076"/>
<stop offset="1" stop-color="#46B3A5"/>
</linearGradient>
</defs>
</svg>
