<svg width="14" height="14" viewBox="0 0 14 14" fill="none" xmlns="http://www.w3.org/2000/svg">
<path d="M6.07495 6.7502V7.42518H5.39997C5.22096 7.42518 5.04927 7.4963 4.92269 7.62288C4.79611 7.74946 4.72499 7.92115 4.72499 8.10016C4.72499 8.27918 4.79611 8.45086 4.92269 8.57745C5.04927 8.70403 5.22096 8.77514 5.39997 8.77514H6.07495V9.45012C6.07495 9.62914 6.14607 9.80082 6.27265 9.92741C6.39923 10.054 6.57092 10.1251 6.74993 10.1251C6.92895 10.1251 7.10063 10.054 7.22721 9.92741C7.3538 9.80082 7.42491 9.62914 7.42491 9.45012V8.77514H8.09989C8.27891 8.77514 8.45059 8.70403 8.57717 8.57745C8.70376 8.45086 8.77487 8.27918 8.77487 8.10016C8.77487 7.92115 8.70376 7.74946 8.57717 7.62288C8.45059 7.4963 8.27891 7.42518 8.09989 7.42518H7.42491V6.7502C7.42491 6.57119 7.3538 6.39951 7.22721 6.27292C7.10063 6.14634 6.92895 6.07522 6.74993 6.07522C6.57092 6.07522 6.39923 6.14634 6.27265 6.27292C6.14607 6.39951 6.07495 6.57119 6.07495 6.7502ZM13.2729 5.57034L7.19812 0.170504C7.07466 0.0606741 6.91517 0 6.74993 0C6.58469 0 6.4252 0.0606741 6.30175 0.170504L0.226929 5.57034C0.0930254 5.68921 0.0118255 5.8564 0.00119255 6.03513C-0.00944044 6.21387 0.0513646 6.38951 0.170231 6.52341C0.289097 6.65731 0.456288 6.73851 0.635024 6.74915C0.813759 6.75978 0.989398 6.69898 1.1233 6.58011L1.3501 6.37829V12.825C1.3501 13.004 1.42121 13.1757 1.54779 13.3023C1.67438 13.4289 1.84606 13.5 2.02507 13.5H11.4748C11.6538 13.5 11.8255 13.4289 11.9521 13.3023C12.0787 13.1757 12.1498 13.004 12.1498 12.825V6.37829L12.3766 6.58011C12.5105 6.69898 12.6861 6.75978 12.8648 6.74915C12.9533 6.74388 13.0399 6.72124 13.1197 6.68251C13.1994 6.64377 13.2708 6.58971 13.3296 6.52341C13.3885 6.45711 13.4337 6.37986 13.4627 6.29608C13.4917 6.21231 13.5039 6.12363 13.4987 6.03513C13.4934 5.94663 13.4708 5.86003 13.432 5.78029C13.3933 5.70054 13.3392 5.6292 13.2729 5.57034ZM10.7998 12.15H2.70005V5.17818L6.74993 1.57851L10.7998 5.17818V12.15Z" fill="#363637"/>
</svg>
