<svg width="14" height="14" viewBox="0 0 14 14" fill="none" xmlns="http://www.w3.org/2000/svg">
<path d="M3.42667 5.70667L4.13333 5.00001L3.42667 4.29334L4.13333 3.58667L5.54667 5.00001L4.13333 6.41334L3.42667 5.70667ZM1.54667 4.66667C1.56667 4.66667 1.58 4.67334 1.6 4.67334C1.99766 3.68695 2.68108 2.84193 3.56251 2.24679C4.44394 1.65165 5.48313 1.33355 6.54667 1.33334C8.00667 1.33334 9.32 1.92001 10.2867 2.86667C10.3867 2.46667 10.5867 2.00667 10.8267 1.56001C9.62669 0.55035 8.10823 -0.00224907 6.54 6.88009e-06C3.28667 6.88009e-06 0.58 2.34001 0 5.42667C0.373333 4.96001 0.94 4.66667 1.54667 4.66667ZM12.5467 5.66667C12.2667 5.66667 12 5.60667 11.7533 5.52001C11.8333 5.88667 11.88 6.27334 11.88 6.66667C11.88 9.61334 9.49333 12 6.54667 12C4.30667 12 2.39333 10.62 1.6 8.66001C1.58 8.66001 1.56667 8.66667 1.54667 8.66667C1.2 8.66667 0.853333 8.57334 0.546667 8.40001C0.333333 8.28001 0.153333 8.12001 0 7.93334C0.593333 11.0067 3.28667 13.3333 6.53333 13.3333C10.2267 13.3333 13.2133 10.3467 13.2133 6.66667C13.2133 6.30001 13.1733 5.94001 13.12 5.58667C12.933 5.63704 12.7404 5.66391 12.5467 5.66667ZM12.5467 0.666674C12.5467 0.666674 11.2133 2.60001 11.2133 3.33334C11.2133 4.06667 11.8133 4.66667 12.5467 4.66667C13.28 4.66667 13.88 4.06667 13.88 3.33334C13.88 2.60001 12.5467 0.666674 12.5467 0.666674ZM8.96 3.58667L7.54667 5.00001L8.96 6.41334L9.66667 5.70667L8.96 5.00001L9.66667 4.29334L8.96 3.58667ZM4.25333 10C4.71333 9.20667 5.56667 8.66667 6.54667 8.66667C7.52667 8.66667 8.38 9.20667 8.84 10H9.96C9.42667 8.63334 8.1 7.66667 6.54667 7.66667C5.96667 7.66667 5.41333 7.80001 4.92667 8.04667L2.54 6.66667C2.54 6.32001 2.36667 5.98667 2.04667 5.80667C1.56667 5.53334 0.96 5.69334 0.68 6.17334C0.406667 6.65334 0.566667 7.26001 1.04667 7.54001C1.36667 7.72667 1.74667 7.70667 2.04 7.54001L4.02 8.68667C3.64 9.04001 3.33333 9.49334 3.13333 10H4.25333Z" fill="#363637"/>
</svg>
