<svg width="360" height="230" viewBox="0 0 360 230" fill="none" xmlns="http://www.w3.org/2000/svg">
<path d="M0 -400H360V210.489C282.5 304.336 119.5 21.6136 0 160.634V-400Z" fill="url(#paint0_linear_2439_7429)"/>
<path d="M93.0022 -6.93435C90.7818 -6.17433 88.2745 -6.33374 86.1765 -7.34572C85.9724 -7.49587 85.7436 -7.61208 85.4957 -7.69024C84.6097 -7.98004 84.0427 -6.72242 84.8663 -6.25147C85.0149 -6.16713 85.1661 -6.08589 85.3188 -6.00773C85.7031 -5.64602 85.7814 -4.86462 85.4083 -4.4044C84.8977 -3.77603 83.7803 -3.55492 82.81 -3.8943C82.1595 -4.12158 81.5373 -4.55867 80.9238 -5.22201C80.7325 -5.54185 80.4908 -5.82981 80.2034 -6.07458C79.4893 -6.68322 78.4966 -5.74864 79.0587 -4.99986C79.2464 -4.74996 79.4362 -4.5165 79.628 -4.30053C80.0965 -3.37977 79.8669 -2.04534 79.0243 -1.26254C77.7319 -0.0598898 75.1082 0.264741 72.5683 -1.62661C76.1254 -4.42057 75.7253 -9.02776 72.0016 -10.1256C69.1179 -10.9736 67.0088 -8.56842 67.6036 -5.77942C67.9164 -4.31199 68.9152 -2.99857 69.9355 -1.89606C68.7112 -1.34687 67.349 -1.0116 66.1031 -0.705131C65.6794 -0.60023 65.4207 -0.172403 65.5251 0.251311C65.629 0.673997 66.0547 0.932134 66.4805 0.82929C67.9897 0.456998 69.6558 0.0466534 71.1552 -0.729813C75.6893 3.05357 81.0108 1.08281 81.4226 -2.79799C84.0578 -1.30312 87.3391 -2.60266 87.2281 -5.27137C89.2737 -4.70573 91.4956 -4.74893 93.5134 -5.439C93.9263 -5.58093 94.1464 -6.02933 94.005 -6.44275C93.8635 -6.85618 93.4141 -7.07524 93.0022 -6.93435ZM71.3568 -2.69309C70.4792 -3.59099 69.4107 -4.8797 69.1483 -6.10851C68.9601 -6.99194 69.2033 -7.87022 69.7684 -8.34638C70.8477 -9.2567 72.9122 -8.36019 73.3252 -7.00942C73.8165 -5.40456 72.7411 -3.70381 71.3568 -2.69309Z" fill="#002547"/>
<path d="M47.2365 7.56119C60.8944 8.53833 74.6147 7.69637 88.2824 6.85427C97.0955 6.31124 99.6639 1.32172 99.2612 -2.04906C99.4279 -2.71851 99.5261 -3.41193 99.5342 -4.12579C100.335 -12.7327 100.426 -22.1007 99.8134 -32.71C99.868 -38.183 95.0997 -42.4647 89.5152 -42.4647C89.2444 -42.4647 81.734 -42.9516 72.4548 -43.1153C72.6656 -44.8264 72.9436 -47.9192 73.2084 -49.1022C73.3186 -49.5929 72.9465 -50.0627 72.4402 -50.0648C71.7227 -50.0675 62.6037 -50.0196 62.7102 -50.0196C62.3307 -50.0196 62.0047 -49.7491 61.9342 -49.3768C61.6771 -48.0156 61.4911 -44.7968 61.3756 -43.1403C55.6887 -43.0623 50.1123 -42.8384 44.8447 -42.4657C43.8757 -42.4657 42.9413 -42.3314 42.0513 -42.0974C39.0162 -42.1224 35.1626 -39.1374 33.8927 -36.539C32.5856 -33.8646 32.4489 -30.8205 32.3344 -27.8688C31.2517 0.0704489 31.9812 6.46965 47.2365 7.56119ZM71.6969 -37.051C72.7299 -36.9782 73.7737 -36.8891 74.875 -36.7672C75.094 -36.7425 75.274 -36.5769 75.3028 -36.3733C75.8186 -32.7274 75.0681 -33.4587 71.5211 -33.4999C71.5362 -34.666 71.5961 -35.8525 71.6969 -37.051ZM63.0105 -43.8963C63.1071 -45.3433 63.2336 -47.2336 63.3879 -48.4389C64.5572 -48.4186 68.4421 -48.4838 71.495 -48.4862C71.3557 -47.5555 71.2246 -46.345 71.097 -45.1633C70.653 -41.0635 70.0065 -38.6888 69.9414 -33.5018C67.7992 -33.4783 65.9187 -33.3871 63.1168 -33.278C63.0624 -34.7676 62.4566 -35.6653 63.0105 -43.8963ZM61.2311 -37.0823C61.2772 -35.8124 61.371 -34.524 61.536 -33.2279C60.6764 -33.2044 59.8161 -33.1848 58.9718 -33.1944C58.5784 -33.1965 58.2432 -33.4824 58.2252 -33.8321C58.1722 -34.8625 58.2992 -35.9876 58.3794 -36.5667C58.4036 -36.7405 58.5682 -36.8803 58.7708 -36.8988C59.588 -36.975 60.4092 -37.0291 61.2311 -37.0823ZM44.9003 -40.8881C50.1499 -41.2573 55.65 -41.4836 61.2616 -41.5628C61.1924 -40.5225 61.1742 -39.4768 61.1804 -38.6739C60.3257 -38.6184 59.4742 -38.5515 58.6242 -38.4723C57.6852 -38.3849 56.9412 -37.6907 56.8152 -36.7847C56.7267 -36.1491 56.5879 -34.9109 56.6476 -33.7508C56.7093 -32.5599 57.7269 -31.6209 58.9636 -31.6148C63.1402 -31.5829 69.673 -32.1084 73.0984 -31.8739C74.0229 -31.8122 75.0704 -31.7392 75.8947 -32.2791C77.3463 -33.2047 77.0691 -35.1639 76.867 -36.5944C76.7375 -37.5159 75.9898 -38.2327 75.0488 -38.3366C73.9408 -38.4597 72.8845 -38.5561 71.8435 -38.6301C71.9271 -39.4288 72.0713 -40.559 72.2309 -41.5402C77.5566 -41.4497 83.1909 -41.2347 89.4664 -40.8861C94.1753 -40.8861 98.278 -37.3922 98.2353 -32.673C98.8452 -22.076 98.7547 -12.7749 97.9587 -4.23891C97.9566 -4.21732 97.9551 -4.19469 97.9551 -4.17207C97.9221 0.254307 93.994 3.85485 89.1656 3.85588C74.3011 4.49865 59.4017 4.49556 44.8447 3.85485C40.0168 3.85485 36.0892 0.221397 36.0835 -4.34073C35.0726 -12.6463 35.0731 -21.931 36.0892 -32.7975C36.0892 -37.2578 40.0168 -40.8861 44.9003 -40.8881Z" fill="#002547"/>
<path d="M318.016 -1.60339C321.684 2.61279 327.728 4.60717 333.185 3.40191C338.642 2.19665 343.284 -2.15802 344.835 -7.52686C346.386 -12.8958 344.781 -19.055 340.808 -22.9846C337.778 -25.9808 333.541 -27.4956 329.43 -27.4956C316.37 -27.4956 309.454 -11.4448 318.016 -1.60339ZM329.43 -25.9956C336.806 -25.9956 342.806 -19.9956 342.806 -12.6206C342.806 -5.24463 336.806 0.755367 329.43 0.755367C322.055 0.755367 316.055 -5.24463 316.055 -12.6206C316.055 -19.9956 322.055 -25.9956 329.43 -25.9956Z" fill="#002547"/>
<path d="M152.714 40.3385C154.9 40.2615 156.35 38.1836 155.561 36.2649C154.924 34.7164 153.074 33.9415 151.429 34.534C149.783 35.1266 148.966 36.8622 149.603 38.4107C150.11 39.6429 151.385 40.3852 152.714 40.3385Z" fill="#002547"/>
<path d="M145.873 48.1836C146.069 48.1837 159.14 48.1929 159.039 48.1929C159.449 48.1929 159.783 47.8643 159.789 47.4546C159.794 47.166 159.677 46.9189 159.552 46.6504C158.99 45.2073 158.457 43.9942 157.275 42.9673C155.965 41.8334 154.25 41.2295 152.645 41.2295C151.041 41.2295 149.566 41.8052 148.011 43.0376C146.878 43.936 145.527 45.2314 145.136 47.2939C145.048 47.7598 145.407 48.1836 145.873 48.1836ZM148.943 44.2134C150.466 43.0062 151.879 42.6395 153.079 42.7485C154.471 42.8732 155.744 43.5096 156.586 44.3784C157.227 45.0402 157.608 45.8365 157.955 46.6904L146.875 46.6841C147.236 45.8218 147.891 45.0469 148.943 44.2134Z" fill="#002547"/>
<path d="M145.237 73.8076C145.237 73.8076 145.279 73.7648 145.28 73.7633C147.142 71.6158 148.1 68.8776 147.977 66.0543L147.977 66.0514C147.719 60.5725 143.561 56.2817 138.412 55.6085C131.82 54.6535 125.665 60.0701 125.982 67.0153C126.415 76.8916 138.702 81.1939 145.237 73.8076ZM144.353 72.5189L141.53 72.4938C140.166 72.4801 139.055 71.361 139.055 69.9987V57.2515C145.874 58.7898 148.838 66.9768 144.353 72.5189ZM136.09 57.0742C135.938 61.0245 135.788 64.9841 136.03 68.9018C136.106 70.1262 136.243 71.4145 136.961 72.4095C137.686 73.4154 138.914 73.9643 140.142 74.1367C140.991 74.2558 141.849 74.212 142.704 74.1232C136.704 78.6616 127.818 74.6423 127.481 66.9479C127.259 62.0926 130.773 57.6163 136.09 57.0742Z" fill="#002547"/>
<path d="M112.112 90.5549C112.614 91.071 113.332 91.3317 114.032 91.3404C115.789 91.3626 116.266 90.8481 127.697 80.3571C127.994 80.2575 128.286 80.0864 128.548 79.8613C128.554 79.8649 128.563 79.8684 128.569 79.8719C135.557 84.6087 146.062 82.9801 150.476 74.0723C179.804 74.3148 170.004 74.2507 172.061 74.2507C174.382 74.2507 176.27 72.3702 176.27 70.0446V36.3215C176.27 35.7088 176.041 35.1539 175.675 34.7172C175.658 34.5927 175.62 34.4705 175.538 34.364C173.976 32.3381 171.859 30.6086 169.812 28.9357C169.175 28.4285 169.077 28.3016 168.828 28.1624C168.31 27.5861 167.567 27.216 166.731 27.216C139.829 27.3506 140.029 26.6773 138.969 27.2052C137.041 27.7551 136.505 29.5445 136.162 31.3691C135.841 33.0778 136.107 49.5341 135.947 52.1765C125.781 52.7792 119.298 63.5357 123.799 72.8883C122.305 73.3674 121.713 74.9864 122.11 76.6044C118.788 79.7649 115.017 83.4083 111.804 86.4626C110.952 87.2733 110.642 89.2645 111.549 90.1618C111.697 90.3081 111.895 90.4371 112.112 90.5549ZM173.179 33.9266L169.894 34.7336C169.537 34.8225 169.184 34.5291 169.22 34.1442L169.511 30.6315C170.795 31.6862 172.076 32.7685 173.179 33.9266ZM166.735 28.716C167.466 28.716 168.06 29.3103 168.062 29.9787C167.775 34.0075 167.614 34.0514 167.804 34.7396C167.834 35.2305 168.006 35.6894 168.429 36.0382C170.371 37.6389 173.622 34.871 174.127 40.6684C174.341 43.1251 174.556 45.5817 174.77 48.0384V70.0446C174.77 71.5408 173.57 72.7353 172.034 72.7507L151.119 72.5775C152.828 67.9641 152.086 63.3226 149.659 59.5776C149.668 59.5593 149.659 59.5502 149.649 59.5593C148.552 57.8343 146.864 56.0902 145.535 55.0896C145.525 55.0788 145.517 55.0695 145.509 55.0622C145.409 55.0074 143.051 52.965 139.055 52.353C139.013 28.0458 138.992 29.5387 139.273 28.9953C139.538 28.4826 139.633 28.4421 140.402 28.4948C143.311 28.6938 161.059 28.7444 166.735 28.716ZM138.228 53.7326C147.223 54.6658 152.745 64.74 148.135 72.9421C146.201 76.403 142.903 78.6543 139.382 79.3171L139.383 79.32C135.384 80.047 131.792 79.0768 128.993 76.9411C118.706 69.1995 124.965 52.2652 138.228 53.7326ZM124.555 74.2609C125.463 75.7144 126.622 77.0154 128.02 78.0818C127.91 78.4306 127.468 78.9111 127.174 78.9538C126.66 79.029 125.937 78.8982 125.45 78.6413C124.846 78.3239 124.357 77.823 123.865 77.0173C123.212 75.9457 123.345 74.3405 124.555 74.2609ZM112.837 87.5505C115.918 84.6209 119.508 81.1559 122.761 78.0571C123.223 78.7559 123.719 79.2872 124.285 79.676C120.891 82.9146 117.391 86.4109 114.208 89.4372C114.019 89.614 112.982 89.4704 112.603 89.0954C112.408 88.8999 112.497 87.8741 112.837 87.5505Z" fill="#002547"/>
<path d="M149.395 52.7515C149.395 53.1655 149.73 53.5015 150.145 53.5015H168.202C168.616 53.5015 168.952 53.1655 168.952 52.7515C168.952 52.3374 168.616 52.0015 168.202 52.0015H150.145C149.73 52.0015 149.395 52.3374 149.395 52.7515Z" fill="#002547"/>
<path d="M166.906 60.2515H155.979C155.564 60.2515 155.229 60.5874 155.229 61.0015C155.229 61.4155 155.564 61.7515 155.979 61.7515H166.906C167.32 61.7515 167.656 61.4155 167.656 61.0015C167.656 60.5874 167.32 60.2515 166.906 60.2515Z" fill="#002547"/>
<path d="M166.479 66.0845H155.895C155.48 66.0845 155.145 66.4204 155.145 66.8345C155.145 67.2485 155.48 67.5845 155.895 67.5845H166.479C166.893 67.5845 167.229 67.2485 167.229 66.8345C167.229 66.4204 166.893 66.0845 166.479 66.0845Z" fill="#002547"/>
<path d="M246.291 15.1669V18.6216C246.291 19.0356 246.627 19.3716 247.041 19.3716C247.455 19.3716 247.791 19.0356 247.791 18.6216V15.1533C248.525 14.7247 248.858 13.831 248.47 12.9996L251.864 9.60596C252.157 9.31299 252.157 8.83838 251.864 8.54541C251.571 8.25244 251.096 8.25244 250.803 8.54541L247.205 12.1442C245.296 11.9702 244.758 14.3414 246.291 15.1669Z" fill="#002547"/>
<path d="M255.873 6.1134L256.849 5.13721C257.142 4.84424 257.142 4.36963 256.849 4.07666C256.557 3.78467 256.083 3.78271 255.789 4.07666L254.799 5.06604C252.831 3.40002 250.292 2.38916 247.519 2.38269V1.43701H247.973C248.387 1.43701 248.723 1.10107 248.723 0.687012C248.723 0.272949 248.387 -0.0629883 247.973 -0.0629883H245.436C245.022 -0.0629883 244.686 0.272949 244.686 0.687012C244.686 1.10107 245.022 1.43701 245.436 1.43701H246.019V2.48846C244.308 2.71234 242.716 3.31482 241.332 4.21631C241.713 3.05985 241.591 3.98705 241.929 -22.7111C241.948 -24.2501 241.96 -25.8322 241.414 -27.2697C240.884 -28.6624 239.964 -29.4929 238.859 -29.9114C238.289 -30.2534 237.63 -30.4624 236.918 -30.4624H229.784C229.768 -30.5682 229.899 -31.829 229.073 -32.644C228.749 -32.9624 228.342 -33.1362 227.923 -33.1362C227.822 -33.1362 224.306 -33.0786 224.407 -33.0777V-35.0132C224.407 -36.4272 222.971 -37.5356 221.139 -37.5356H220.542C218.716 -37.5356 217.285 -36.4272 217.285 -35.0132V-32.9582L213.518 -32.895C212.506 -32.8765 211.7 -31.8569 211.684 -30.5718L211.683 -30.4624H205.841C203.739 -30.4624 202.029 -28.7573 202.029 -26.6616C202.189 17.3488 201.66 15.4935 202.441 17.0555C202.568 18.1258 203.08 19.0721 204.316 19.6396C205.353 20.1158 206.53 20.1479 207.671 20.1718C217.745 20.3834 227.624 20.3462 237.676 20.5294C241.907 27.594 251.428 27.0143 256.103 21.7033C260.245 16.9982 259.554 10.1702 255.873 6.1134ZM247.493 3.88135C252.913 3.88135 257.322 8.2915 257.322 13.7114C257.322 19.1313 252.913 23.5405 247.493 23.5405C242.073 23.5405 237.663 19.1313 237.663 13.7114C237.663 8.2915 242.073 3.88135 247.493 3.88135ZM218.785 -35.0132C218.785 -35.4966 219.507 -36.0356 220.542 -36.0356H221.139C222.151 -36.0356 222.907 -35.4956 222.907 -35.0132V-33.0525L218.785 -32.9833V-35.0132ZM213.545 -31.395C228.956 -31.6317 227.9 -31.692 228.02 -31.5747C228.142 -31.4546 228.284 -31.1743 228.284 -30.7769V-26.979C228.284 -26.4282 228.012 -26.1216 227.924 -26.1196L213.5 -25.8667C213.504 -25.8647 213.448 -25.8833 213.401 -25.9292C213.277 -26.0522 213.135 -26.3403 213.139 -26.7456L213.184 -30.5542C213.191 -31.1021 213.455 -31.3931 213.545 -31.395ZM203.529 -26.6616C203.529 -27.9302 204.566 -28.9624 205.841 -28.9624H211.665C211.756 -27.481 211.28 -25.9242 212.344 -24.8657C212.551 -24.6591 212.796 -24.52 213.055 -24.4412C214.413 -23.4675 216.696 -23.8153 225.673 -23.8245C226.626 -23.8255 227.624 -23.8375 228.462 -24.2922C229.7 -24.9644 230.571 -26.6798 230.064 -28.9624H236.918C238.186 -28.9624 239.219 -27.9302 239.219 -26.6616V5.99713C237.249 8.10779 236.118 10.8779 236.173 13.9213C236.079 15.0606 236.198 16.4577 236.49 17.6733H205.841C204.566 17.6733 203.529 16.6411 203.529 15.3716V-26.6616Z" fill="#002547"/>
<path d="M222.283 -0.112793V9.48779C222.283 9.90186 222.619 10.2378 223.033 10.2378C233.734 10.1633 233.564 10.4363 233.979 10.022C234.391 9.60906 234.12 9.79522 234.198 -0.112793C234.198 -0.526855 233.862 -0.862793 233.448 -0.862793H223.033C222.619 -0.862793 222.283 -0.526855 222.283 -0.112793ZM223.783 0.637207H232.698V8.7417L223.783 8.73779V0.637207Z" fill="#002547"/>
<path d="M218.873 0.0698242H208.764C208.35 0.0698242 208.014 0.405762 208.014 0.819824C208.014 1.23389 208.35 1.56982 208.764 1.56982H218.873C219.287 1.56982 219.623 1.23389 219.623 0.819824C219.623 0.405762 219.287 0.0698242 218.873 0.0698242Z" fill="#002547"/>
<path d="M216.9 9.40479H212.098C211.684 9.40479 211.348 9.74072 211.348 10.1548C211.348 10.5688 211.684 10.9048 212.098 10.9048H216.9C217.314 10.9048 217.65 10.5688 217.65 10.1548C217.65 9.74072 217.314 9.40479 216.9 9.40479Z" fill="#002547"/>
<path d="M301.389 170.388C303.701 169.573 304.85 167.186 303.955 165.057C303.06 162.927 300.46 161.861 298.148 162.676C295.837 163.491 294.688 165.878 295.583 168.008C296.476 170.132 299.072 171.206 301.389 170.388Z" fill="#002547"/>
<path d="M309.656 180.759L309.508 180.759C309.698 180.377 309.527 179.964 309.341 179.579C308.994 178.856 308.345 176.651 306.682 174.969C305.043 173.32 302.579 172.211 299.942 172.167C297.732 172.156 295.697 172.917 293.541 174.588C291.988 175.793 290.136 177.528 289.605 180.275C289.57 180.457 289.618 180.637 289.712 180.794L289.654 180.795C289.98 181.127 290.289 181.657 290.614 181.99L308.822 181.97L309.656 180.759ZM294.46 175.773C296.26 174.378 298.217 173.497 300.494 173.694C302.509 173.871 304.366 174.765 305.617 176.025C306.19 176.604 306.661 177.29 307.101 178.182C307.336 178.657 307.548 179.161 307.757 179.678L291.317 179.669C291.801 178.28 292.783 177.074 294.46 175.773Z" fill="#002547"/>
<path d="M291.061 155.656C292.711 155.656 293.804 154.019 293.275 152.632C292.926 151.719 291.845 151.149 290.877 151.447C290.106 151.355 289.048 152.043 288.859 153.122C288.64 154.365 289.609 155.656 291.061 155.656Z" fill="#002547"/>
<path d="M298.161 155.007C299.06 154.44 299.465 153.297 299.104 152.35C298.756 151.439 297.681 150.866 296.705 151.164C295.937 151.073 294.877 151.764 294.687 152.839C294.365 154.679 296.468 156.074 298.161 155.007Z" fill="#002547"/>
<path d="M304.459 155.007C305.358 154.44 305.764 153.297 305.403 152.35C305.052 151.433 303.969 150.867 303.004 151.165C302.234 151.073 301.176 151.761 300.986 152.839C300.663 154.679 302.768 156.075 304.459 155.007Z" fill="#002547"/>
<path d="M309.77 153.767H336.568C336.982 153.767 337.318 153.431 337.318 153.017C337.318 152.603 336.982 152.267 336.568 152.267H309.77C309.355 152.267 309.02 152.603 309.02 153.017C309.02 153.431 309.355 153.767 309.77 153.767Z" fill="#002547"/>
<path d="M336.271 167.027H314.236C313.822 167.027 313.486 167.363 313.486 167.777C313.486 168.191 313.822 168.527 314.236 168.527H336.271C336.685 168.527 337.021 168.191 337.021 167.777C337.021 167.363 336.685 167.027 336.271 167.027Z" fill="#002547"/>
<path d="M332.915 175.814C332.915 175.4 332.579 175.064 332.165 175.064H314.236C313.822 175.064 313.486 175.4 313.486 175.814C313.486 176.228 313.822 176.564 314.236 176.564H332.165C332.579 176.564 332.915 176.228 332.915 175.814Z" fill="#002547"/>
<path d="M309.823 186.486H301.445C299.998 186.486 298.82 187.664 298.82 189.111V197.489C298.82 198.936 299.998 200.114 301.445 200.114H309.823C311.27 200.114 312.448 198.936 312.448 197.489V189.111C312.448 187.664 311.27 186.486 309.823 186.486ZM310.948 197.489C310.948 198.109 310.443 198.614 309.823 198.614H301.445C300.825 198.614 300.32 198.109 300.32 197.489V189.111C300.32 188.491 300.825 187.986 301.445 187.986H309.823C310.443 187.986 310.948 188.491 310.948 189.111V197.489Z" fill="#002547"/>
<path d="M332.102 186.486H323.725C322.277 186.486 321.1 187.664 321.1 189.111V197.489C321.1 198.936 322.277 200.114 323.725 200.114H332.102C333.549 200.114 334.727 198.936 334.727 197.489V189.111C334.727 187.664 333.549 186.486 332.102 186.486ZM333.227 197.489C333.227 198.109 332.722 198.614 332.102 198.614H323.725C323.104 198.614 322.6 198.109 322.6 197.489V189.111C322.6 188.491 323.104 187.986 323.725 187.986H332.102C332.722 187.986 333.227 188.491 333.227 189.111V197.489Z" fill="#002547"/>
<path d="M348.754 150.963C348.038 149.443 346.554 148.179 344.931 148.031C344.373 147.746 343.751 147.569 343.082 147.567C323.211 146.811 305.83 146.811 289.981 147.567C287.702 147.567 285.847 149.421 285.848 151.659C284.717 172.003 284.718 188.75 285.847 202.797C285.847 205.076 287.699 206.929 289.91 206.929C292.573 207.103 301.308 208.017 315.375 208.017C324.195 208.017 333.399 207.656 343.101 206.932C343.656 206.932 344.194 206.823 344.691 206.616C346.178 206.266 347.55 205.4 348.399 204.125C349.718 202.143 349.756 199.605 349.749 197.224C349.709 183.756 349.669 170.288 349.629 156.82C349.623 154.829 349.601 152.765 348.754 150.963ZM287.347 151.701C287.347 150.249 288.529 149.067 290.017 149.066C316.328 147.811 343.168 149.067 343.068 149.067C344.519 149.067 345.701 150.248 345.704 151.743C345.821 153.766 345.924 155.73 346.019 157.665C345.276 157.416 323.466 158.374 287.13 157.625C287.1 157.626 287.076 157.638 287.047 157.641C287.137 155.693 287.235 153.72 287.347 151.701ZM289.981 205.432C288.529 205.432 287.347 204.25 287.345 202.738C286.358 190.441 286.236 176.117 286.979 159.099C287.02 159.106 287.056 159.125 287.099 159.125C296.193 159.312 305.674 159.406 315.48 159.406C317.997 159.406 345.539 159.307 346.088 159.057C346.915 176.675 346.798 190.699 345.735 202.796C345.736 203.498 345.403 204.073 344.936 204.683C344.441 205.165 343.792 205.432 343.045 205.434C323.655 206.877 306.32 206.878 289.981 205.432Z" fill="#002547"/>
<path d="M224.204 116.95C217.06 118.181 211.065 122.756 207.975 130.067C207.701 130.603 207.978 131.392 208.831 131.503L209.483 132.889C216.921 133.498 232.844 133.513 241.565 133.485L242.028 132.265L242.077 132.264C242.545 132.25 242.882 131.82 242.792 131.369C242.235 128.556 241.293 124.997 238.928 122.414C236.661 119.934 234.423 118.468 231.444 117.51C229.031 116.739 226.597 116.55 224.204 116.95ZM231.887 119.258C231.333 122.357 230.401 122.748 228.358 122.85C227.138 122.91 225.906 122.906 224.699 122.834C222.597 122.712 222.311 122.251 221.081 119.34C224.74 118.052 227.937 117.742 231.887 119.258ZM237.822 123.426C239.707 125.486 240.6 128.338 241.139 130.79C218.392 131.429 209.827 130.106 209.669 130.097C209.647 130.094 209.624 130.091 209.602 130.089C211.778 125.3 215.468 121.668 219.681 119.878C220.955 122.892 221.553 124.151 224.611 124.332C225.884 124.406 227.207 124.41 228.433 124.348C230.959 124.222 232.611 123.436 233.297 119.889C234.944 120.724 236.377 121.847 237.822 123.426Z" fill="#002547"/>
<path d="M234.312 103.443C235.331 99.6204 233.508 95.9866 230.366 94.8307C228.4 94.108 225.909 94.6481 224.358 96.0807C221.432 95.3472 218.157 98.0275 218.792 103.017C217.828 103.294 217.372 104.212 217.475 105.172C217.585 106.187 218.474 107.09 219.306 107.425C219.528 108.98 220.003 110.671 221.021 112.134C222.67 114.502 225.574 115.792 228.122 115.049C228.944 114.811 229.416 114.461 229.934 114.155C231.91 112.989 232.834 110.043 233.152 107.765C235.383 107.445 235.596 104.371 234.312 103.443ZM220.236 101.091C220.51 98.2792 222.655 96.9495 224.277 97.6295C224.574 97.7545 224.916 97.6744 225.129 97.4352C226.207 96.2155 228.324 95.6764 229.849 96.2389C232.768 97.3129 233.955 101.068 232.438 104.194C231.173 103.102 230.713 101.179 230.416 99.2301C230.293 98.4204 229.174 98.3968 228.955 99.1315C228.177 101.781 223.265 104.337 220.519 104.101C220.246 102.911 220.151 101.958 220.236 101.091ZM222.253 111.277C221.285 109.886 220.77 108.062 220.645 105.593C223.4 105.705 227.353 103.919 229.334 101.48C229.758 103.119 230.478 104.656 231.849 105.625C231.852 105.636 231.858 105.646 231.861 105.657C231.751 107.256 231.576 108.926 230.936 110.425C230.251 112.03 229.043 113.22 227.703 113.609C225.612 114.219 223.379 112.895 222.253 111.277Z" fill="#002547"/>
<path d="M247.192 102.118C250.723 101.996 253.078 98.7094 251.799 95.6655C250.768 93.213 247.775 91.9857 245.113 92.9242C242.451 93.8627 241.128 96.6117 242.159 99.0641C242.979 101.016 245.042 102.192 247.192 102.118Z" fill="#002547"/>
<path d="M254.861 107.164C253.024 105.298 250.174 104.012 247.176 103.967C244.667 103.982 242.336 104.823 239.876 106.731C238.104 108.107 235.99 110.087 235.387 113.212C235.344 113.432 235.402 113.66 235.544 113.833C235.622 113.926 235.722 113.993 235.831 114.04C236.079 114.37 236.323 114.738 236.576 115L257.174 114.978L257.859 113.966C258.37 113.594 258.173 113.008 257.899 112.437C257.476 111.562 256.754 109.074 254.861 107.164ZM240.796 107.917C242.892 106.29 245.169 105.275 247.824 105.499C250.211 105.709 252.367 106.777 253.794 108.217C255.033 109.469 255.691 110.981 256.346 112.618L237.088 112.606C237.632 110.921 238.785 109.477 240.796 107.917Z" fill="#002547"/>
<path d="M200.788 99.4314C201.816 101.879 204.807 103.113 207.474 102.173C210.136 101.234 211.458 98.4852 210.428 96.0327C209.397 93.5802 206.404 92.3529 203.742 93.2914C201.08 94.2299 199.757 96.9789 200.788 99.4314Z" fill="#002547"/>
<path d="M215.802 115.345L216.486 114.333C217.119 113.873 216.64 113.121 216.449 112.636C215.558 110.398 214.734 108.544 212.888 106.974C210.846 105.242 208.173 104.334 205.711 104.334C203.226 104.334 200.933 105.214 198.504 107.098C196.731 108.474 194.618 110.454 194.014 113.58C193.953 113.895 194.092 114.251 194.459 114.407C194.706 114.737 194.95 115.105 195.203 115.368L215.802 115.345ZM199.424 108.284C201.891 106.369 203.826 105.834 205.785 105.834C208.397 105.88 210.829 106.982 212.422 108.584C213.661 109.836 214.319 111.348 214.973 112.985L195.715 112.973C196.26 111.289 197.412 109.844 199.424 108.284Z" fill="#002547"/>
<path d="M223.644 90.0102C223.78 90.224 224.015 90.3539 224.268 90.3568C224.271 90.3568 224.274 90.3568 224.277 90.3568C224.526 90.3568 224.76 90.2328 224.899 90.0248C226.508 87.6303 228.785 85.4535 231.862 83.3705C232.205 83.1381 232.294 82.6723 232.062 82.3285C231.83 81.9857 231.363 81.8978 231.021 82.1283C228.175 84.0551 225.97 86.0717 224.311 88.267L221.857 84.4252C221.633 84.0746 221.169 83.973 220.821 84.1967C220.472 84.4193 220.37 84.8832 220.592 85.2318L223.644 90.0102Z" fill="#002547"/>
<path d="M201.65 90.7453C202.28 90.7453 202.202 90.2966 204.209 88.1276C206.527 90.2058 206.537 90.5178 207.059 90.5178C207.736 90.5178 208.066 89.6831 207.571 89.2199L205.269 87.0642C206.101 86.2834 206.981 85.5981 207.928 85.0998C208.294 84.9065 208.435 84.4524 208.242 84.0861C208.048 83.7199 207.596 83.5793 207.229 83.7717C206.121 84.3549 205.112 85.1446 204.171 86.0368L202.342 84.3244C202.039 84.0432 201.565 84.0588 201.282 84.3596C200.999 84.6623 201.014 85.1369 201.317 85.4201L203.114 87.1026C202.394 87.8807 201.714 88.7058 201.062 89.5305C200.668 90.0275 201.034 90.7453 201.65 90.7453Z" fill="#002547"/>
<path d="M250.594 84.0861C250.401 83.7199 249.947 83.5793 249.581 83.7717C248.473 84.3552 247.464 85.1449 246.523 86.0368L244.694 84.3244C244.39 84.0432 243.917 84.0588 243.634 84.3596C243.351 84.6623 243.366 85.1369 243.668 85.4201L245.466 87.1025C244.746 87.8808 244.065 88.706 243.414 89.5305C243.157 89.8547 243.212 90.3264 243.537 90.5832C243.862 90.8418 244.335 90.7841 244.59 90.4602C245.219 89.6655 245.873 88.8708 246.56 88.1273C248.879 90.2055 248.889 90.5178 249.411 90.5178C250.088 90.5178 250.418 89.6831 249.923 89.2199L247.62 87.0641C248.452 86.2834 249.332 85.5984 250.28 85.0998C250.646 84.9065 250.787 84.4524 250.594 84.0861Z" fill="#002547"/>
<path d="M294.689 93.7315C301.263 95.1402 308.148 93.5785 313.622 89.853C314.191 98.0006 321.742 103.085 329.035 101.474C333.48 100.492 337.261 96.9451 338.524 92.5719C340.205 86.7548 337.447 79.7168 330.901 77.2085C328.516 76.1567 325.884 75.8746 323.215 76.4923C326.741 66.4017 323.364 55.4515 315.388 49.1929C307.9 43.3006 296.187 41.8035 287.362 47.9556C283.213 50.842 279.625 54.1086 277.466 58.6969C275.225 63.4829 274.411 68.9701 275.441 74.1716C277.328 83.6746 285.221 91.6976 294.689 93.7315ZM299.019 45.5438C298.955 45.9693 298.898 55.3364 298.896 55.7523C296.357 55.7034 293.937 55.4544 291.676 55.0105C293.271 51.8703 295.421 48.731 298.135 45.6163C298.429 45.5902 298.723 45.5584 299.019 45.5438ZM301.487 45.5448C303.872 48.3683 305.854 51.4567 307.375 54.6256C305.212 55.3061 302.859 55.6937 300.396 55.7487C300.46 44.4207 300.542 45.9121 300.47 45.5302C300.81 45.535 301.148 45.525 301.487 45.5448ZM325.976 77.6671C331.907 77.6671 336.732 82.4923 336.732 88.4229C336.732 94.3536 331.907 99.1788 325.976 99.1788C320.046 99.1788 315.22 94.3536 315.22 88.4229C315.22 82.4923 320.046 77.6671 325.976 77.6671ZM313.767 86.8079C310.784 89.1253 307.508 90.4108 303.994 90.9379C306.398 87.6643 308.294 84.3231 309.671 80.9802C311.211 81.4575 313.496 82.2407 315.035 82.9326C314.433 84.1272 313.969 85.613 313.767 86.8079ZM299.319 91.1584C299.29 91.1571 299.262 91.1552 299.233 91.1538C298.939 90.5894 294.6 87.0321 291.395 80.822C293.893 80.0861 296.453 79.6644 299.041 79.565C299.112 83.4387 299.204 87.3053 299.319 91.1584ZM296.962 90.928C291.46 90.1071 287.122 87.7063 283.784 84.1696C285.744 82.9744 287.826 82.0007 289.989 81.262C291.652 84.5924 293.975 87.8291 296.962 90.928ZM301.958 91.1423C301.578 91.1675 301.199 91.1757 300.82 91.1824C300.704 87.3076 300.611 83.4189 300.541 79.5231C303.124 79.5492 305.699 79.9116 308.214 80.5772C306.474 84.7347 304.122 88.3416 301.958 91.1423ZM299.022 78.0648C296.222 78.1673 293.44 78.6315 290.73 79.4524C289.107 75.887 288.282 72.2329 288.261 68.5296C291.912 68.3223 295.46 68.1714 298.899 68.0832C298.921 71.4124 298.967 74.7398 299.022 78.0648ZM289.348 79.8984C287.054 80.6947 284.843 81.7382 282.769 83.0269C279.632 79.2188 277.719 74.3773 277.565 69.2794C280.74 69.0164 283.838 68.7923 286.858 68.6097C286.89 72.4393 287.723 76.221 289.348 79.8984ZM321.4 77.0623C319.102 77.9915 317.146 79.5924 315.785 81.6276C314.209 80.9053 311.842 80.0863 310.216 79.579C311.592 75.8369 312.367 71.9781 312.308 68.0539C316.021 68.1384 319.614 68.3031 323.098 68.5488C323.072 71.4472 322.505 74.3284 321.4 77.0623ZM308.768 79.1715C306.069 78.4422 303.302 78.0469 300.522 78.0222C300.466 74.7008 300.421 71.3773 300.399 68.0517C303.974 67.9774 307.442 67.9672 310.808 68.0235C310.873 71.8623 310.102 75.5878 308.768 79.1715ZM300.397 66.5515C300.381 63.4494 300.37 60.3471 300.383 57.2498C303.102 57.1961 305.665 56.7734 308.011 56.0183C309.536 59.535 310.476 63.1154 310.737 66.5222C307.392 66.4674 303.946 66.4783 300.397 66.5515ZM298.883 57.2518C298.87 60.3589 298.881 63.471 298.897 66.583C295.468 66.6703 291.934 66.8197 288.297 67.0249C288.482 63.5128 289.386 59.9628 291.003 56.4091C293.465 56.919 296.11 57.1992 298.883 57.2518ZM286.885 67.1054C283.862 67.2872 280.761 67.5105 277.582 67.7727C277.806 62.5155 280.102 57.5501 283.26 53.7581C285.152 54.7291 287.272 55.4978 289.563 56.0719C287.948 59.7522 287.053 63.4464 286.885 67.1054ZM323.065 67.0432C319.569 66.7992 315.966 66.6359 312.243 66.5527C311.986 62.9706 311.013 59.2085 309.425 55.5187C311.856 54.5558 314.007 53.2122 315.782 51.5125C319.962 55.3679 322.711 60.8085 323.065 67.0432ZM314.637 50.5241C313.026 52.0363 311.042 53.2524 308.797 54.1316C307.421 51.2339 305.677 48.4046 303.603 45.7705C307.853 46.417 311.47 47.986 314.637 50.5241ZM295.069 46.0811C295.342 46.0169 295.625 45.9828 295.902 45.9292C293.536 48.8177 291.642 51.7455 290.204 54.6865C288.057 54.1677 286.074 53.4675 284.295 52.5901C287.246 49.4518 290.922 47.0432 295.069 46.0811Z" fill="#002547"/>
<path d="M321.157 44.5311C320.775 44.3788 320.337 44.5653 320.183 44.9501L318.671 48.7377C318.517 49.1224 318.705 49.5585 319.09 49.7123C319.473 49.8647 319.91 49.6794 320.064 49.2933L321.576 45.5057C321.73 45.121 321.542 44.6849 321.157 44.5311Z" fill="#002547"/>
<path d="M322.376 53.0054L326.069 49.3424C326.363 49.0504 326.365 48.5758 326.074 48.2813C325.782 47.9879 325.308 47.9849 325.013 48.2769L321.319 51.941C321.025 52.2325 321.023 52.7076 321.315 53.0015C321.607 53.2953 322.082 53.2976 322.376 53.0054Z" fill="#002547"/>
<path d="M323.576 56.3304C325.406 55.7904 327.295 55.3983 329.189 55.1659C329.6 55.1151 329.892 54.7411 329.842 54.3299C329.791 53.9178 329.408 53.6312 329.006 53.6766C327.03 53.9198 325.061 54.3285 323.151 54.8919C322.754 55.0091 322.527 55.4261 322.644 55.8236C322.763 56.2252 323.184 56.4466 323.576 56.3304Z" fill="#002547"/>
<path d="M327.576 89.9746C328.013 90.3379 328.235 90.8779 328.117 91.2861C328.01 91.6582 327.537 92.2129 327.105 92.4727C325.908 93.1921 323.974 92.4963 323.839 91.7432C323.766 91.335 323.373 91.0684 322.969 91.1367C322.561 91.21 322.289 91.5996 322.362 92.0068C322.575 93.1953 323.918 94.0244 325.075 94.2002C325.161 94.2134 325.268 94.2134 325.36 94.2242V95.5947C325.36 96.0088 325.696 96.3447 326.11 96.3447C326.524 96.3447 326.86 96.0088 326.86 95.5947V94.1715C328.196 93.8564 329.277 92.6754 329.558 91.7021C329.84 90.7227 329.43 89.5654 328.536 88.8223C326.863 87.4288 323.663 87.7543 323.126 86.4062C322.789 85.5602 323.83 83.675 325.502 83.4111C326.459 83.2549 327.463 83.7217 327.891 84.5078C328.09 84.8711 328.547 85.0068 328.909 84.8066C329.272 84.6084 329.407 84.1533 329.208 83.7891C328.625 82.7206 327.48 82.0301 326.24 81.9109V80.7676C326.24 80.3535 325.904 80.0176 325.49 80.0176C325.076 80.0176 324.74 80.3535 324.74 80.7676V82.0496C322.407 82.7496 321.085 85.3338 321.733 86.9609C322.667 89.3015 326.153 88.7894 327.576 89.9746Z" fill="#002547"/>
<path d="M53.8081 52.8164C54.0268 52.999 54.1518 53.2744 54.0991 53.458C54.0493 53.6318 53.7778 53.9687 53.5171 54.126C53.2329 54.2979 52.9321 54.3359 52.4497 54.2617C52.0493 54.2002 51.6762 53.9141 51.6548 53.793C51.5825 53.3857 51.1938 53.1143 50.7846 53.1865C50.3774 53.2588 50.1049 53.6484 50.1782 54.0566C50.3416 54.9719 51.3457 55.6064 52.2133 55.7418V56.4551C52.2133 56.8691 52.5493 57.2051 52.9633 57.2051C53.3774 57.2051 53.7133 56.8691 53.7133 56.4551V55.6649C53.9031 55.6052 54.0956 55.5282 54.2905 55.4111C54.7602 55.1279 55.352 54.5264 55.5405 53.873C55.7612 53.1055 55.4585 52.2383 54.768 51.6641C53.2833 50.4259 50.5506 51.0305 51.2495 49.4834C51.8476 48.1697 53.4435 48.0744 53.9653 49.0293C54.1626 49.3916 54.6196 49.5293 54.9829 49.3281C55.3462 49.1299 55.4799 48.6748 55.2817 48.3105C54.8817 47.5778 54.1272 47.0814 53.2924 46.9361V46.3691C53.2924 45.9551 52.9565 45.6191 52.5424 45.6191C52.1284 45.6191 51.7924 45.9551 51.7924 46.3691V47.0898C50.974 47.3909 50.2669 48.0211 49.8842 48.8623C49.5913 49.5078 49.5493 50.1338 49.7641 50.6719C50.4564 52.4129 52.9198 52.0762 53.8081 52.8164Z" fill="#002547"/>
<path d="M54.9547 60.4547C57.9783 59.7868 60.5503 57.374 61.4097 54.3992C62.9313 49.1315 58.8749 43 52.8741 43C46.9344 43 42.7373 48.9448 44.8484 54.575C46.2735 59.2179 50.9988 61.3283 54.9547 60.4547ZM52.8741 44.5C56.7755 44.5 59.9503 47.6748 59.9503 51.5771C59.9503 55.4785 56.7755 58.6533 52.8741 58.6533C48.9718 58.6533 45.797 55.4785 45.797 51.5771C45.797 47.6748 48.9718 44.5 52.8741 44.5Z" fill="#002547"/>
<path d="M13.0007 85.3694C12.9668 86.2298 14.1839 86.4534 14.4597 85.6389C14.4874 85.5574 14.5225 85.4792 14.551 85.398C15.8263 83.4374 16.9606 81.4646 18.495 79.6713C23.5763 73.7327 29.6321 70.4483 33.2055 69.7503C33.6152 71.6375 33.4419 72.5312 35.3635 72.7474C35.3617 72.7388 35.3592 72.7297 35.3573 72.7211C35.6013 72.706 35.8545 72.5461 36.0183 72.3284L36.0222 72.3323C43.9214 62.9624 44.7436 63.2486 44.6696 62.4123C44.6511 62.1916 44.5349 61.9905 44.3542 61.8635C40.8025 59.3645 34.5456 56.9612 30.2273 57.2532C29.989 57.2688 29.7722 57.3977 29.6442 57.5998C29.6105 57.6529 29.6038 57.715 29.5847 57.7735C28.7525 59.1292 29.1679 59.3286 30.2962 61.0488C20.2835 65.6228 13.3873 75.2308 13.0007 85.3694ZM32.1101 61.886C32.487 61.7336 32.6745 61.3069 32.531 60.926C32.2717 60.2401 31.7868 59.3809 31.4538 58.7356C35.0515 58.8762 39.6726 60.6467 42.7507 62.5969C40.6081 64.7961 37.9314 67.7912 35.8171 70.258C35.6874 68.8309 35.6331 66.82 34.5114 67.0481C26.2849 68.6135 19.3005 73.508 15.2927 80.2678C17.448 72.3059 23.7321 65.2707 32.1101 61.886Z" fill="#002547"/>
<path d="M73.2227 60.3219L71.2042 58.3034L71.2045 58.2432C71.2064 57.8291 70.8715 57.4922 70.4574 57.4902C70.4564 57.4902 70.4555 57.4902 70.4545 57.4902C70.0414 57.4902 69.7064 57.8242 69.7045 58.2373L69.5365 104.392H64.4697C64.6203 104.213 64.7084 103.98 64.7084 103.735C64.5889 66.1873 64.9939 67.7741 64.3859 67.0945L63.9343 66.5898C63.9088 66.1988 63.5912 65.8867 63.1937 65.8867H53.3568C52.9428 65.8867 52.6068 66.2227 52.6068 66.6367V104.392H45.7957L45.7822 81.4305C45.782 81.1151 45.6437 80.8192 45.4111 80.6366L45.2388 80.5014C45.1677 80.1613 44.8801 79.9004 44.5189 79.9004H34.682C34.268 79.9004 33.932 80.2363 33.932 80.6504V104.392H28.4359C28.4908 104.293 28.526 104.18 28.5255 104.059L28.4813 92.9146C28.4794 92.415 28.0476 92.3095 27.9474 92.2231C27.8405 91.9394 27.5714 91.7354 27.2504 91.7354H17.4135C16.9994 91.7354 16.6635 92.0713 16.6635 92.4854V104.392H14.9945C14.1694 104.392 13.946 105.545 14.7351 105.839L15.7847 107.348H73.0978L73.2227 60.3219ZM54.1068 67.3867H62.4437V104.263H54.1068V67.3867ZM35.432 81.4004H43.7689V104.392H35.432V81.4004ZM18.1635 93.2354H26.5004V103.657H18.1635V93.2354Z" fill="#002547"/>
<defs>
<linearGradient id="paint0_linear_2439_7429" x1="174.5" y1="-2.49999" x2="180" y2="230" gradientUnits="userSpaceOnUse">
<stop stop-color="#043E72"/>
<stop offset="1" stop-color="#247369"/>
</linearGradient>
</defs>
</svg>
